<svg xmlns="http://www.w3.org/2000/svg" width="30" height="30" viewBox="0 0 30 30">
    <path fill="#8E44AD" fill-rule="nonzero" d="M15.833 0a4.167 4.167 0 1 0 0 8.333 4.167 4.167 0 0 0 0-8.333zM5 5a3.333 3.333 0 1 0 0 6.667A3.333 3.333 0 0 0 5 5zm20 1.667A1.667 1.667 0 1 0 25 10a1.667 1.667 0 0 0 0-3.333zM2.5 15a2.5 2.5 0 1 0 0 5 2.5 2.5 0 0 0 0-5zm25.833 0a1.667 1.667 0 1 0 0 3.333 1.667 1.667 0 0 0 0-3.333zM7.5 23.333a2.5 2.5 0 1 0 0 5 2.5 2.5 0 0 0 0-5zm17.5 0a1.667 1.667 0 1 0 0 3.334 1.667 1.667 0 0 0 0-3.334zM15.833 25a2.5 2.5 0 1 0 0 5 2.5 2.5 0 0 0 0-5z"/>
</svg>
